# xmcd
#
# Track frame offsets:
#	150
#	15663
#	28587
#	43176
#	58593
#	77345
#	91943
#	107600
#	122687
#	146608
#	171940
#	190535
#	211426
#	226164
#	248860
#	264164
#
# Disc length: 3702 seconds
#
# Revision: 1
# Processed by: cddbd v1.5.1PL0 Copyright (c) Steve Scherf et al.
# Submitted via: audiograbber 1.83.01
#
DISCID=c80e7410
DTITLE=Various Artist - Dance Classics Of 70-80s CD 2
DYEAR=2002
DGENRE=70-80s
TTITLE0=Miquel Brown - So Many Men, So Little Time
TTITLE1=Rose Royce - Car Wash
TTITLE2=Sister Sledge - We Are Family
TTITLE3=Leroy Gomez/Santana Esmaralda - Don't Let Me Be Misunderstood
TTITLE4=Gloria Gaynor - Reach Out(I'll Be There)
TTITLE5=Billy Ocean - Love Really Hurts Without You
TTITLE6=The Real Thing - You To Me Are Everything
TTITLE7=Tina Charles - I Love To Love
TTITLE8=Chic - Le Freak
TTITLE9=Oliver Cheatham - Get Down Saturday Night
TTITLE10=Amanda Lear - Follow Me
TTITLE11=Taco - Puttin' On The Ritz
TTITLE12=Kelly Marie - Feels Like I'm In Love
TTITLE13=Tony Esposito - Kalimba De Luna
TTITLE14=David Christie - Saddle Up
TTITLE15=Johnny Wakelin - In Zaire
EXTD=
EXTT0=
EXTT1=
EXTT2=
EXTT3=
EXTT4=
EXTT5=
EXTT6=
EXTT7=
EXTT8=
EXTT9=
EXTT10=
EXTT11=
EXTT12=
EXTT13=
EXTT14=
EXTT15=
PLAYORDER=
